<svg width="23" height="23" viewBox="0 0 23 23" fill="none" xmlns="http://www.w3.org/2000/svg">
<g opacity="0.5" filter="url(#filter0_i_6_19)">
<circle cx="11.4946" cy="11.2107" r="8.65626" fill="url(#paint0_linear_6_19)"/>
</g>
<g opacity="0.3" filter="url(#filter1_i_6_19)">
<circle cx="11.2106" cy="11.2106" r="10.7106" stroke="url(#paint1_linear_6_19)"/>
</g>
<g filter="url(#filter2_i_6_19)">
<circle cx="11.4943" cy="11.2106" r="6.66958" fill="url(#paint2_linear_6_19)"/>
</g>
<g clip-path="url(#clip0_6_19)">
<path d="M12.6587 10.0991C12.7088 10.1465 12.7381 10.2118 12.7401 10.2808C12.742 10.3497 12.7165 10.4167 12.6691 10.4668L11.1949 12.0278C11.171 12.053 11.1423 12.0732 11.1104 12.0872C11.0786 12.1012 11.0443 12.1086 11.0095 12.1091C10.9748 12.1096 10.9403 12.1031 10.9081 12.09C10.8758 12.0769 10.8466 12.0575 10.822 12.033L10.0415 11.2525C9.99555 11.2032 9.97053 11.1379 9.97172 11.0705C9.97291 11.0031 10.0002 10.9388 10.0479 10.8912C10.0955 10.8435 10.1599 10.8162 10.2273 10.815C10.2947 10.8138 10.3599 10.8388 10.4092 10.8848L11.0006 11.4759L12.291 10.1095C12.3384 10.0594 12.4038 10.0301 12.4727 10.0282C12.5417 10.0262 12.6086 10.0517 12.6587 10.0991Z" fill="white"/>
</g>
<defs>
<filter id="filter0_i_6_19" x="2.83838" y="2.55444" width="17.3125" height="21.3125" filterUnits="userSpaceOnUse" color-interpolation-filters="sRGB">
<feFlood flood-opacity="0" result="BackgroundImageFix"/>
<feBlend mode="normal" in="SourceGraphic" in2="BackgroundImageFix" result="shape"/>
<feColorMatrix in="SourceAlpha" type="matrix" values="0 0 0 0 0 0 0 0 0 0 0 0 0 0 0 0 0 0 127 0" result="hardAlpha"/>
<feOffset dy="6"/>
<feGaussianBlur stdDeviation="2"/>
<feComposite in2="hardAlpha" operator="arithmetic" k2="-1" k3="1"/>
<feColorMatrix type="matrix" values="0 0 0 0 1 0 0 0 0 1 0 0 0 0 1 0 0 0 0.25 0"/>
<feBlend mode="normal" in2="shape" result="effect1_innerShadow_6_19"/>
</filter>
<filter id="filter1_i_6_19" x="0" y="0" width="22.4209" height="26.4211" filterUnits="userSpaceOnUse" color-interpolation-filters="sRGB">
<feFlood flood-opacity="0" result="BackgroundImageFix"/>
<feBlend mode="normal" in="SourceGraphic" in2="BackgroundImageFix" result="shape"/>
<feColorMatrix in="SourceAlpha" type="matrix" values="0 0 0 0 0 0 0 0 0 0 0 0 0 0 0 0 0 0 127 0" result="hardAlpha"/>
<feOffset dy="6"/>
<feGaussianBlur stdDeviation="2"/>
<feComposite in2="hardAlpha" operator="arithmetic" k2="-1" k3="1"/>
<feColorMatrix type="matrix" values="0 0 0 0 1 0 0 0 0 1 0 0 0 0 1 0 0 0 0.25 0"/>
<feBlend mode="normal" in2="shape" result="effect1_innerShadow_6_19"/>
</filter>
<filter id="filter2_i_6_19" x="4.82471" y="4.54102" width="13.3394" height="17.3391" filterUnits="userSpaceOnUse" color-interpolation-filters="sRGB">
<feFlood flood-opacity="0" result="BackgroundImageFix"/>
<feBlend mode="normal" in="SourceGraphic" in2="BackgroundImageFix" result="shape"/>
<feColorMatrix in="SourceAlpha" type="matrix" values="0 0 0 0 0 0 0 0 0 0 0 0 0 0 0 0 0 0 127 0" result="hardAlpha"/>
<feOffset dy="6"/>
<feGaussianBlur stdDeviation="2"/>
<feComposite in2="hardAlpha" operator="arithmetic" k2="-1" k3="1"/>
<feColorMatrix type="matrix" values="0 0 0 0 1 0 0 0 0 1 0 0 0 0 1 0 0 0 0.25 0"/>
<feBlend mode="normal" in2="shape" result="effect1_innerShadow_6_19"/>
</filter>
<linearGradient id="paint0_linear_6_19" x1="11.4946" y1="2.55444" x2="11.4946" y2="19.867" gradientUnits="userSpaceOnUse">
<stop stop-color="#F5953E"/>
<stop offset="1" stop-color="#EA6A37"/>
</linearGradient>
<linearGradient id="paint1_linear_6_19" x1="11.2106" y1="0" x2="11.2106" y2="22.4211" gradientUnits="userSpaceOnUse">
<stop stop-color="#F5953E"/>
<stop offset="1" stop-color="#EA6A37" stop-opacity="0"/>
</linearGradient>
<linearGradient id="paint2_linear_6_19" x1="11.4943" y1="4.54102" x2="11.4943" y2="17.8802" gradientUnits="userSpaceOnUse">
<stop stop-color="#F5953E"/>
<stop offset="1" stop-color="#EA6A37"/>
</linearGradient>
<clipPath id="clip0_6_19">
<rect width="4.16257" height="4.16257" fill="white" transform="translate(9.27148 8.9873)"/>
</clipPath>
</defs>
</svg>
